<svg width="44" height="26" viewBox="0 0 44 26" fill="none" xmlns="http://www.w3.org/2000/svg">
<path d="M11 7.42857H14.6667V11.1429H18.3333V14.8571H14.6667V18.5714H11V14.8571H7.33333V11.1429H11V7.42857ZM33.9167 7.42857C34.646 7.42857 35.3455 7.72206 35.8612 8.24449C36.3769 8.76691 36.6667 9.47547 36.6667 10.2143C36.6667 10.9531 36.3769 11.6617 35.8612 12.1841C35.3455 12.7065 34.646 13 33.9167 13C33.1873 13 32.4879 12.7065 31.9721 12.1841C31.4564 11.6617 31.1667 10.9531 31.1667 10.2143C31.1667 9.47547 31.4564 8.76691 31.9721 8.24449C32.4879 7.72206 33.1873 7.42857 33.9167 7.42857ZM28.4167 13C29.146 13 29.8455 13.2935 30.3612 13.8159C30.8769 14.3383 31.1667 15.0469 31.1667 15.7857C31.1667 16.5245 30.8769 17.2331 30.3612 17.7555C29.8455 18.2779 29.146 18.5714 28.4167 18.5714C27.6873 18.5714 26.9878 18.2779 26.4721 17.7555C25.9564 17.2331 25.6667 16.5245 25.6667 15.7857C25.6667 15.0469 25.9564 14.3383 26.4721 13.8159C26.9878 13.2935 27.6873 13 28.4167 13V13ZM31.1667 0C34.5703 0 37.8345 1.36964 40.2412 3.80761C42.6479 6.24558 44 9.55219 44 13C44 16.4478 42.6479 19.7544 40.2412 22.1924C37.8345 24.6304 34.5703 26 31.1667 26C27.5733 26 24.3283 24.5143 22 22.1C19.6717 24.5143 16.4267 26 12.8333 26C9.42972 26 6.16551 24.6304 3.7588 22.1924C1.35208 19.7544 0 16.4478 0 13C0 9.55219 1.35208 6.24558 3.7588 3.80761C6.16551 1.36964 9.42972 0 12.8333 0H31.1667ZM12.8333 3.71429C10.4022 3.71429 8.0706 4.6926 6.35152 6.43401C4.63244 8.17542 3.66667 10.5373 3.66667 13C3.66667 15.4627 4.63244 17.8246 6.35152 19.566C8.0706 21.3074 10.4022 22.2857 12.8333 22.2857C15.84 22.2857 18.4983 20.8186 20.1667 18.5714H23.8333C25.5017 20.8186 28.16 22.2857 31.1667 22.2857C33.5978 22.2857 35.9294 21.3074 37.6485 19.566C39.3676 17.8246 40.3333 15.4627 40.3333 13C40.3333 10.5373 39.3676 8.17542 37.6485 6.43401C35.9294 4.6926 33.5978 3.71429 31.1667 3.71429H12.8333Z" fill="white"/>
</svg>
